<?xml version="1.0" standalone="no"?>
<!DOCTYPE svg PUBLIC "-//W3C//DTD SVG 20010904//EN"
 "http://www.w3.org/TR/2001/REC-SVG-20010904/DTD/svg10.dtd">
<svg version="1.0" xmlns="http://www.w3.org/2000/svg"
 width="145.000000pt" height="145.000000pt" viewBox="0 0 145.000000 145.000000"
 preserveAspectRatio="xMidYMid meet">
<metadata>
Created by potrace 1.11, written by Peter Selinger 2001-2013
</metadata>
<g transform="translate(0.000000,145.000000) scale(0.100000,-0.100000)"
fill="#000000" stroke="none">
<path d="M555 1400 c-379 -98 -595 -458 -511 -848 24 -110 113 -260 201 -341
133 -120 296 -184 475 -184 197 -1 359 64 493 197 303 300 272 797 -67 1052
-37 28 -78 56 -89 62 -51 25 -115 51 -138 56 -13 3 -35 8 -49 12 -58 16 -244
13 -315 -6z"/>
</g>
</svg>
